<?xml version="1.0" encoding="utf-8"?>
<!-- Generator: Adobe Illustrator 14.0.0, SVG Export Plug-In . SVG Version: 6.00 Build 43363)  -->
<!DOCTYPE svg PUBLIC "-//W3C//DTD SVG 1.1//EN" "http://www.w3.org/Graphics/SVG/1.1/DTD/svg11.dtd">
<svg version="1.1" id="Layer_1" xmlns="http://www.w3.org/2000/svg" xmlns:xlink="http://www.w3.org/1999/xlink" x="0px" y="0px"
	 width="595px" height="842px" viewBox="0 0 595 842" enable-background="new 0 0 595 842" xml:space="preserve">
<g>
	<g>
		<g id="XMLID_1_">
			<g>
				<rect x="0" y="83.059" width="595" height="580.52"/>
			</g>
			<g>
			</g>
		</g>
		<g>
			<path fill-rule="evenodd" clip-rule="evenodd" d="M91.063,355.972h412.875c0.476,5.721,0.72,11.508,0.72,17.352
				c0,44.658-14.197,86.011-38.328,119.816H128.67c-24.131-33.805-38.326-75.158-38.326-119.816
				C90.344,367.48,90.586,361.693,91.063,355.972z"/>
			
				<rect x="144.719" y="254.052" fill-rule="evenodd" clip-rule="evenodd" fill="none" stroke="#FFFFFF" stroke-width="0.216" stroke-miterlimit="22.9256" width="33.269" height="33.888"/>
			<g>
				<rect x="144.261" y="253.578" fill-rule="evenodd" clip-rule="evenodd" fill="#E6E7E8" width="34.086" height="34.389"/>
				<rect x="212.831" y="254.601" fill-rule="evenodd" clip-rule="evenodd" fill="#E6E7E8" width="34.086" height="33.366"/>
				<rect x="281.085" y="254.601" fill-rule="evenodd" clip-rule="evenodd" fill="#E6E7E8" width="34.086" height="33.366"/>
				<rect x="348.703" y="254.601" fill-rule="evenodd" clip-rule="evenodd" fill="#E6E7E8" width="34.086" height="33.366"/>
			</g>
			<rect x="296.4" y="322.682" fill-rule="evenodd" clip-rule="evenodd" fill="#FFFFFF" width="3.037" height="101.587"/>
			<g>
				<rect x="145.838" y="390.867" fill-rule="evenodd" clip-rule="evenodd" fill="#FFFFFF" width="3.249" height="63.342"/>
				<rect x="153.516" y="390.867" fill-rule="evenodd" clip-rule="evenodd" fill="#FFFFFF" width="3.248" height="63.342"/>
				<rect x="161.194" y="390.867" fill-rule="evenodd" clip-rule="evenodd" fill="#FFFFFF" width="3.249" height="63.342"/>
				<rect x="168.872" y="390.867" fill-rule="evenodd" clip-rule="evenodd" fill="#FFFFFF" width="3.248" height="63.342"/>
				<rect x="176.55" y="390.867" fill-rule="evenodd" clip-rule="evenodd" fill="#FFFFFF" width="3.249" height="63.342"/>
				<rect x="184.228" y="390.867" fill-rule="evenodd" clip-rule="evenodd" fill="#FFFFFF" width="3.249" height="63.342"/>
				<rect x="191.906" y="390.867" fill-rule="evenodd" clip-rule="evenodd" fill="#FFFFFF" width="3.249" height="63.342"/>
				<rect x="199.584" y="390.867" fill-rule="evenodd" clip-rule="evenodd" fill="#FFFFFF" width="3.249" height="63.342"/>
				<rect x="207.262" y="390.867" fill-rule="evenodd" clip-rule="evenodd" fill="#FFFFFF" width="3.248" height="63.342"/>
				<rect x="214.939" y="390.867" fill-rule="evenodd" clip-rule="evenodd" fill="#FFFFFF" width="3.249" height="63.342"/>
				<rect x="222.618" y="390.867" fill-rule="evenodd" clip-rule="evenodd" fill="#FFFFFF" width="3.249" height="63.342"/>
				<rect x="230.296" y="390.867" fill-rule="evenodd" clip-rule="evenodd" fill="#FFFFFF" width="3.249" height="63.342"/>
				<rect x="237.974" y="390.867" fill-rule="evenodd" clip-rule="evenodd" fill="#FFFFFF" width="3.249" height="63.342"/>
				<rect x="245.652" y="390.867" fill-rule="evenodd" clip-rule="evenodd" fill="#FFFFFF" width="3.249" height="63.342"/>
				<rect x="253.33" y="390.867" fill-rule="evenodd" clip-rule="evenodd" fill="#FFFFFF" width="3.249" height="63.342"/>
				<rect x="261.008" y="390.867" fill-rule="evenodd" clip-rule="evenodd" fill="#FFFFFF" width="3.248" height="63.342"/>
				<rect x="268.686" y="390.867" fill-rule="evenodd" clip-rule="evenodd" fill="#FFFFFF" width="3.249" height="63.342"/>
				<rect x="276.364" y="390.867" fill-rule="evenodd" clip-rule="evenodd" fill="#FFFFFF" width="3.249" height="63.342"/>
				<rect x="284.042" y="390.867" fill-rule="evenodd" clip-rule="evenodd" fill="#FFFFFF" width="3.249" height="63.342"/>
				<rect x="291.72" y="390.867" fill-rule="evenodd" clip-rule="evenodd" fill="#FFFFFF" width="3.249" height="63.342"/>
				<rect x="299.398" y="390.867" fill-rule="evenodd" clip-rule="evenodd" fill="#FFFFFF" width="3.248" height="63.342"/>
				<rect x="307.075" y="390.867" fill-rule="evenodd" clip-rule="evenodd" fill="#FFFFFF" width="3.249" height="63.342"/>
				<rect x="314.754" y="390.867" fill-rule="evenodd" clip-rule="evenodd" fill="#FFFFFF" width="3.248" height="63.342"/>
				<rect x="322.432" y="390.867" fill-rule="evenodd" clip-rule="evenodd" fill="#FFFFFF" width="3.249" height="63.342"/>
				<rect x="330.11" y="390.867" fill-rule="evenodd" clip-rule="evenodd" fill="#FFFFFF" width="3.247" height="63.342"/>
				<rect x="337.789" y="390.867" fill-rule="evenodd" clip-rule="evenodd" fill="#FFFFFF" width="3.246" height="63.342"/>
				<rect x="345.467" y="390.867" fill-rule="evenodd" clip-rule="evenodd" fill="#FFFFFF" width="3.247" height="63.342"/>
				<rect x="353.144" y="390.867" fill-rule="evenodd" clip-rule="evenodd" fill="#FFFFFF" width="3.248" height="63.342"/>
				<rect x="360.822" y="390.867" fill-rule="evenodd" clip-rule="evenodd" fill="#FFFFFF" width="3.248" height="63.342"/>
				<rect x="368.5" y="390.867" fill-rule="evenodd" clip-rule="evenodd" fill="#FFFFFF" width="3.248" height="63.342"/>
				<rect x="376.179" y="390.867" fill-rule="evenodd" clip-rule="evenodd" fill="#FFFFFF" width="3.248" height="63.342"/>
				<rect x="383.856" y="390.867" fill-rule="evenodd" clip-rule="evenodd" fill="#FFFFFF" width="3.247" height="63.342"/>
				<rect x="391.535" y="390.867" fill-rule="evenodd" clip-rule="evenodd" fill="#FFFFFF" width="3.246" height="63.342"/>
				<rect x="399.213" y="390.867" fill-rule="evenodd" clip-rule="evenodd" fill="#FFFFFF" width="3.247" height="63.342"/>
				<rect x="406.89" y="390.867" fill-rule="evenodd" clip-rule="evenodd" fill="#FFFFFF" width="3.248" height="63.342"/>
				<rect x="414.568" y="390.867" fill-rule="evenodd" clip-rule="evenodd" fill="#FFFFFF" width="3.248" height="63.342"/>
				<rect x="422.246" y="390.867" fill-rule="evenodd" clip-rule="evenodd" fill="#FFFFFF" width="3.248" height="63.342"/>
				<rect x="429.925" y="390.867" fill-rule="evenodd" clip-rule="evenodd" fill="#FFFFFF" width="3.247" height="63.342"/>
				<rect x="437.603" y="390.867" fill-rule="evenodd" clip-rule="evenodd" fill="#FFFFFF" width="3.247" height="63.342"/>
				<rect x="445.28" y="390.867" fill-rule="evenodd" clip-rule="evenodd" fill="#FFFFFF" width="3.247" height="63.342"/>
				<rect x="452.958" y="390.867" fill-rule="evenodd" clip-rule="evenodd" fill="#FFFFFF" width="3.248" height="63.342"/>
			</g>
			<g>
				<rect x="177.772" y="459.366" fill-rule="evenodd" clip-rule="evenodd" fill="#58595B" width="68.608" height="33.701"/>
				<rect x="246.38" y="459.366" fill-rule="evenodd" clip-rule="evenodd" fill="#939598" width="101.91" height="33.701"/>
				<rect x="348.692" y="459.366" fill-rule="evenodd" clip-rule="evenodd" fill="#D1D3D4" width="68.607" height="33.701"/>
			</g>
			<g>
				<path fill-rule="evenodd" clip-rule="evenodd" fill="#FFF200" d="M108.757,288.02h35.315v68.519H91.019
					C92.974,332.276,99.13,309.196,108.757,288.02z"/>
				<rect x="144.318" y="288.02" fill-rule="evenodd" clip-rule="evenodd" fill="#00AEEF" width="68.271" height="68.519"/>
				<rect x="212.343" y="288.02" fill-rule="evenodd" clip-rule="evenodd" fill="#A6CE39" width="84.786" height="68.519"/>
				<rect x="297.128" y="288.02" fill-rule="evenodd" clip-rule="evenodd" fill="#F287B7" width="86.017" height="68.519"/>
				<rect x="383.146" y="288.02" fill-rule="evenodd" clip-rule="evenodd" fill="#ED1C24" width="68.271" height="68.519"/>
				<path fill-rule="evenodd" clip-rule="evenodd" fill="#0072BC" d="M451.664,288.02h34.582
					c9.627,21.176,15.781,44.256,17.735,68.519h-52.317V288.02z"/>
			</g>
			<rect x="297.312" y="323.016" fill-rule="evenodd" clip-rule="evenodd" width="17.164" height="101.261"/>
			<g>
				
					<rect x="211.876" y="492.667" fill-rule="evenodd" clip-rule="evenodd" stroke="#000000" stroke-width="0.216" stroke-miterlimit="22.9256" width="172.123" height="34.504"/>
				<path fill-rule="evenodd" clip-rule="evenodd" fill="#FFFFFF" d="M128.337,492.667h83.137v34.504h-52.333
					C147.639,516.861,137.293,505.29,128.337,492.667z"/>
				<path fill-rule="evenodd" clip-rule="evenodd" fill="#FFFFFF" d="M417.542,459.366h68.366
					c-5.39,11.731-11.847,22.873-19.247,33.301h0.003c-8.957,12.623-19.303,24.195-30.805,34.504h-52.261v-34.504h33.943V459.366z"
					/>
			</g>
			<g>
				<path fill-rule="evenodd" clip-rule="evenodd" fill="#FFFFFF" d="M467.105,254.634H127.896
					c37.476-53.246,99.468-88.062,169.604-88.062C367.638,166.572,429.629,201.388,467.105,254.634z"/>
				<g>
					<path d="M235.473,240.617h-0.038h0.02l-4.968-11.553h-2.513v13.855c0,0.609,0.267,0.951,0.952,0.951
						c0.685,0,0.952-0.342,0.952-0.951v-10.468h0.038v0.019l4.968,11.423h2.511v-13.859c0-0.609-0.266-0.952-0.951-0.952
						c-0.686,0-0.952,0.343-0.952,0.952L235.473,240.617z"/>
					<path d="M248.683,230.624c-0.457-0.894-1.238-1.561-2.303-1.561s-1.846,0.667-2.303,1.561l-1.903,3.788
						c-0.362,0.742-0.495,1.294-0.495,2.113c0,0.913,0.247,1.484,0.628,2.264l1.751,3.502c0.457,0.914,1.218,1.579,2.322,1.579
						c1.104,0,1.865-0.665,2.322-1.579l1.751-3.502c0.381-0.78,0.628-1.352,0.628-2.264c0-0.818-0.133-1.371-0.495-2.113
						L248.683,230.624L248.683,230.624z M248.739,234.982c0.286,0.552,0.438,0.914,0.438,1.542c0,0.495-0.114,0.837-0.324,1.256
						l-1.827,3.616c-0.133,0.266-0.267,0.571-0.647,0.571c-0.381,0-0.514-0.305-0.647-0.571l-1.828-3.616
						c-0.209-0.419-0.323-0.761-0.323-1.256c0-0.628,0.151-0.99,0.438-1.542l1.713-3.445c0.152-0.304,0.247-0.57,0.647-0.57
						s0.494,0.267,0.647,0.57L248.739,234.982z"/>
					<path d="M287.408,232.467c-0.077-0.114-0.286-0.343-0.286-0.514c0-0.324,0.438-0.267,0.647-0.267h4.036
						c0.589,0,0.913,0.095,0.913,0.742c0,0.533,0.343,0.895,0.914,0.895c0.685,0,0.99-0.495,0.99-1.104
						c0-0.667-0.4-1.371-0.895-1.809c-0.552-0.475-1.161-0.628-1.884-0.628h-4.035c-0.61,0-1.047,0-1.58,0.343
						c-0.647,0.418-1.008,1.066-1.008,1.827c0,0.666,0.228,1.047,0.627,1.561l6.528,8.393c0.076,0.115,0.343,0.399,0.343,0.553
						c0,0.285-0.476,0.229-0.628,0.229h-4.13c-0.532,0-0.837-0.077-0.837-0.648c0-0.514-0.342-0.971-0.895-0.971
						c-0.666,0-1.008,0.533-1.008,1.142c0,0.666,0.38,1.352,0.894,1.771c0.571,0.476,1.199,0.608,1.922,0.608h4.187
						c1.313,0,2.398-0.724,2.398-2.151c0-0.647-0.286-1.084-0.667-1.579L287.408,232.467z"/>
					<path d="M304.575,231.686h2.798c0.494,0,0.952-0.267,0.952-0.952c0-0.686-0.458-0.952-0.952-0.952h-7.499
						c-0.495,0-0.952,0.267-0.952,0.952c0,0.685,0.457,0.952,0.952,0.952h2.798v11.001h-2.798c-0.495,0-0.952,0.267-0.952,0.951
						c0,0.685,0.457,0.951,0.952,0.951h7.499c0.494,0,0.952-0.266,0.952-0.951c0-0.685-0.458-0.951-0.952-0.951h-2.798V231.686z"/>
					<path d="M320.125,239.756v1.941c0,0.837-0.571,0.99-1.257,0.99h-3.025c-1.085,0-1.313-0.324-1.313-1.371v-3.73
						c0-0.933,0-1.732,0.59-2.475l2.075-2.645c0.627-0.8,0.552-0.781,1.599-0.781h2.284c0.494,0,0.952-0.267,0.952-0.952
						c0-0.686-0.458-0.952-0.952-0.952h-2.551c-1.236,0-1.903,0.324-2.664,1.294l-2.247,2.874c-0.723,0.933-0.989,1.561-0.989,2.779
						v4.759c0,0.951,0.134,1.655,0.895,2.341c0.665,0.608,1.313,0.761,2.188,0.761h3.273c1.809,0,3.047-1.142,3.047-2.988v-3.749
						h-3.75c-0.495,0-0.952,0.267-0.952,0.951c0,0.685,0.457,0.952,0.952,0.952H320.125z"/>
					<path d="M333.828,241.335h-0.037h0.019l-4.969-11.553h-2.511v13.856c0,0.609,0.267,0.951,0.951,0.951
						c0.686,0,0.952-0.342,0.952-0.951V233.17h0.038v0.02l4.968,11.423h2.512v-13.858c0-0.61-0.267-0.952-0.951-0.952
						c-0.687,0-0.953,0.342-0.953,0.952L333.828,241.335z"/>
					<path d="M340.033,243.639c-0.134,0.457,0.381,0.951,0.914,0.951c0.589,0,0.895-0.495,1.027-0.951l0.725-2.284h4.053
						l0.703,2.284c0.134,0.457,0.439,0.951,1.028,0.951c0.532,0,1.048-0.495,0.914-0.951l-3.673-12.885
						c-0.133-0.495-0.363-0.972-0.99-0.972c-0.609,0-0.818,0.457-0.971,0.972L340.033,243.639L340.033,243.639z M346.219,239.451
						h-2.987l1.484-5.157h0.038L346.219,239.451z"/>
					<path d="M355.64,242.688v-11.953c0-0.609-0.267-0.952-0.951-0.952c-0.686,0-0.951,0.343-0.951,0.952v13.855h8.449
						c0.496,0,0.953-0.266,0.953-0.951c0-0.685-0.457-0.951-0.953-0.951H355.64z"/>
				</g>
			</g>
			<g>
				<rect x="278.417" y="355.914" fill-rule="evenodd" clip-rule="evenodd" fill="#FFFFFF" width="3.037" height="35.377"/>
				<g>
					<g>
						<path fill="#FFFFFF" d="M151.684,366.348c-1.047,0-1.903,0.856-1.903,1.904v11c0,1.065,0.818,1.903,1.903,1.903h5.595
							c1.085,0,1.904-0.837,1.904-1.903v-11c0-1.048-0.857-1.904-1.904-1.904H151.684L151.684,366.348z M151.684,379.252v-11h5.595
							v11H151.684z"/>
						<path fill="#FFFFFF" d="M165.388,366.348c-1.047,0-1.903,0.856-1.903,1.904v11c0,1.065,0.818,1.903,1.903,1.903h5.596
							c1.084,0,1.903-0.837,1.903-1.903v-11c0-1.048-0.856-1.904-1.903-1.904H165.388L165.388,366.348z M165.388,379.252v-11h5.596
							v11H165.388z"/>
						<path fill="#FFFFFF" d="M182.575,378.737c0.418,0,0.723,0,0.989-0.361c0.209-0.286,0.209-0.495,0.209-0.856v-1.066
							c0-0.362,0-0.571-0.209-0.857c-0.267-0.36-0.571-0.36-0.989-0.36h-1.371c-0.419,0-0.724,0-0.99,0.36
							c-0.209,0.286-0.209,0.495-0.209,0.857v1.066c0,0.361,0,0.571,0.209,0.856c0.266,0.361,0.571,0.361,0.99,0.361H182.575
							L182.575,378.737z M182.575,372.267c0.418,0,0.723,0,0.989-0.362c0.209-0.284,0.209-0.495,0.209-0.855v-1.065
							c0-0.362,0-0.571-0.209-0.857c-0.267-0.362-0.571-0.362-0.989-0.362h-1.371c-0.419,0-0.724,0-0.99,0.362
							c-0.209,0.286-0.209,0.495-0.209,0.857v1.065c0,0.361,0,0.571,0.209,0.855c0.266,0.362,0.571,0.362,0.99,0.362H182.575z"/>
						<path fill="#FFFFFF" d="M192.795,366.348c-1.048,0-1.904,0.856-1.904,1.904v11c0,1.065,0.818,1.903,1.904,1.903h5.595
							c1.084,0,1.903-0.837,1.903-1.903v-11c0-1.048-0.856-1.904-1.903-1.904H192.795L192.795,366.348z M192.795,379.252v-11h5.595
							v11H192.795z"/>
						<path fill="#FFFFFF" d="M206.499,366.348c-1.047,0-1.904,0.856-1.904,1.904v11c0,1.065,0.819,1.903,1.904,1.903h5.596
							c1.085,0,1.903-0.837,1.903-1.903v-11c0-1.048-0.857-1.904-1.903-1.904H206.499L206.499,366.348z M206.499,379.252v-11h5.596
							v11H206.499z"/>
						<path fill="#FFFFFF" d="M362.838,366.348c-1.045,0-1.898,0.856-1.898,1.904v11c0,1.065,0.816,1.903,1.898,1.903h5.587
							c1.082,0,1.899-0.837,1.899-1.903v-11c0-1.048-0.855-1.904-1.899-1.904H362.838L362.838,366.348z M362.838,379.252v-11h5.587
							v11H362.838z"/>
						<path fill="#FFFFFF" d="M376.518,366.348c-1.045,0-1.9,0.856-1.9,1.904v11c0,1.065,0.818,1.903,1.9,1.903h5.585
							c1.083,0,1.9-0.837,1.9-1.903v-11c0-1.048-0.854-1.904-1.9-1.904H376.518L376.518,366.348z M376.518,379.252v-11h5.585v11
							H376.518z"/>
						<path fill="#FFFFFF" d="M390.768,372.61c-0.78,0-1.141,0.305-1.141,1.16c0,0.857,0.36,1.162,1.141,1.162h4.445
							c0.778,0,1.141-0.305,1.141-1.162c0-0.855-0.362-1.16-1.141-1.16H390.768z"/>
						<path fill="#FFFFFF" d="M403.876,366.348c-1.045,0-1.899,0.856-1.899,1.904v11c0,1.065,0.816,1.903,1.899,1.903h5.586
							c1.083,0,1.899-0.837,1.899-1.903v-11c0-1.048-0.855-1.904-1.899-1.904H403.876L403.876,366.348z M403.876,379.252v-11h5.586
							v11H403.876z"/>
						<path fill="#FFFFFF" d="M417.555,366.348c-1.044,0-1.899,0.856-1.899,1.904v11c0,1.065,0.817,1.903,1.899,1.903h5.586
							c1.083,0,1.9-0.837,1.9-1.903v-11c0-1.048-0.856-1.904-1.9-1.904H417.555L417.555,366.348z M417.555,379.252v-11h5.586v11
							H417.555z"/>
						<path fill="#FFFFFF" d="M431.805,372.61c-0.778,0-1.141,0.305-1.141,1.16c0,0.857,0.362,1.162,1.141,1.162h4.444
							c0.781,0,1.142-0.305,1.142-1.162c0-0.855-0.36-1.16-1.142-1.16H431.805z"/>
						<path fill="#FFFFFF" d="M444.915,366.348c-1.047,0-1.9,0.856-1.9,1.904v11c0,1.065,0.816,1.903,1.9,1.903h5.586
							c1.082,0,1.899-0.837,1.899-1.903v-11c0-1.048-0.855-1.904-1.899-1.904H444.915L444.915,366.348z M444.915,379.252v-11h5.586
							v11H444.915z"/>
						<path fill="#FFFFFF" d="M458.594,366.348c-1.045,0-1.9,0.856-1.9,1.904v11c0,1.065,0.817,1.903,1.9,1.903h5.586
							c1.081,0,1.898-0.837,1.898-1.903v-11c0-1.048-0.854-1.904-1.898-1.904H458.594L458.594,366.348z M458.594,379.252v-11h5.586
							v11H458.594z"/>
					</g>
					<g>
						<g>
							<rect x="116.086" y="355.914" fill-rule="evenodd" clip-rule="evenodd" fill="#FFFFFF" width="3.037" height="35.377"/>
							<path fill-rule="evenodd" clip-rule="evenodd" fill="#FFFFFF" d="M90.348,372.19h27.37v3.036h-27.35
								c-0.007-0.635-0.024-1.266-0.024-1.902C90.344,372.945,90.346,372.568,90.348,372.19z"/>
						</g>
						<g>
							<rect x="475.731" y="355.914" fill-rule="evenodd" clip-rule="evenodd" fill="#FFFFFF" width="3.038" height="35.377"/>
							<path fill-rule="evenodd" clip-rule="evenodd" fill="#FFFFFF" d="M504.654,372.19h-27.518v3.036h27.497
								c0.006-0.634,0.024-1.266,0.024-1.902C504.658,372.945,504.656,372.568,504.654,372.19z"/>
						</g>
						<g>
							<rect x="245.205" y="355.914" fill-rule="evenodd" clip-rule="evenodd" fill="#FFFFFF" width="3.037" height="35.377"/>
							<rect x="314.772" y="355.914" fill-rule="evenodd" clip-rule="evenodd" fill="#FFFFFF" width="3.036" height="35.377"/>
							<rect x="348.015" y="355.914" fill-rule="evenodd" clip-rule="evenodd" fill="#FFFFFF" width="3.038" height="35.377"/>
							<rect x="281.382" y="323.016" fill-rule="evenodd" clip-rule="evenodd" width="16.367" height="101.261"/>
							<rect x="245.943" y="372.189" fill-rule="evenodd" clip-rule="evenodd" fill="#FFFFFF" width="104.775" height="3.036"/>
							<rect x="295.615" y="323.016" fill-rule="evenodd" clip-rule="evenodd" fill="#FFFFFF" width="3.037" height="101.389"/>
						</g>
					</g>
				</g>
			</g>
			<g>
				<path fill-rule="evenodd" clip-rule="evenodd" d="M178.792,219.749h33.575v68.192h-34.347v-34.374h-33.393v34.374h-35.812
					c11.866-26.077,28.994-49.262,50.035-68.202h19.942V219.749z"/>
				<polygon fill-rule="evenodd" clip-rule="evenodd" points="246.917,254.603 262.19,254.603 262.19,220.708 246.503,220.708 
					246.503,185.897 349.311,185.897 349.311,220.708 265.516,220.708 265.516,254.603 281.003,254.603 281.003,287.967 
					246.917,287.967 				"/>
				<rect x="315.369" y="254.603" fill-rule="evenodd" clip-rule="evenodd" width="34.087" height="33.364"/>
				<path fill-rule="evenodd" clip-rule="evenodd" d="M415.731,219.749h-33.573v68.192h34.347v-28.945h33.391v28.945h36.292
					c-11.867-26.077-28.994-49.262-50.035-68.202h-20.421V219.749z"/>
			</g>
			<g>
				<path fill-rule="evenodd" clip-rule="evenodd" fill="#ED1C24" d="M280.083,523.963h34.794v55.447
					c-5.616,0.435-11.291,0.663-17.023,0.663c-5.986,0-11.911-0.254-17.771-0.729V523.963z"/>
				<path fill-rule="evenodd" clip-rule="evenodd" fill="#FFF200" d="M157.711,523.963h123.175v55.448
					c-47.314-3.75-90.152-23.373-123.175-53.528V523.963z"/>
				<path fill-rule="evenodd" clip-rule="evenodd" fill="#FFF200" d="M314.186,523.963h123.176v1.854
					c-33.016,30.179-75.855,49.819-123.176,53.587V523.963z"/>
			</g>
		</g>
	</g>
</g>
</svg>
